<svg width="22" height="22" viewBox="0 0 22 22" fill="none" xmlns="http://www.w3.org/2000/svg">
  <path
    d="M8.58812 11.0019L15.3101 4.27987C15.6031 3.98687 15.6031 3.51287 15.3101 3.21987C15.0171 2.92687 14.5421 2.92687 14.2491 3.21987L6.47012 10.9989L14.2061 18.7789C14.3531 18.9269 14.5451 18.9999 14.7371 18.9999C14.9291 18.9999 15.1201 18.9279 15.2671 18.7819C15.5601 18.4899 15.5621 18.0149 15.2701 17.7219L8.58812 11.0019Z"
    fill="black" fill-opacity="0.6" />
  <path fill-rule="evenodd" clip-rule="evenodd"
    d="M5.05791 10.9969L13.542 2.51277C14.2255 1.82924 15.3337 1.82924 16.0172 2.51277C16.7008 3.19629 16.7008 4.30345 16.0172 4.98698L10 11.003L15.9784 17.016C16.6204 17.6602 16.655 18.6797 16.0856 19.3667L15.9718 19.4914C15.6393 19.8216 15.1961 19.9999 14.7371 19.9999C14.2754 19.9999 13.8292 19.8185 13.497 19.484L5.05791 10.9969ZM15.3101 3.21987C15.0171 2.92687 14.5421 2.92687 14.2491 3.21987L6.47013 10.9989L14.2061 18.7789L14.2994 18.8587C14.4299 18.9532 14.5835 18.9999 14.7371 18.9999C14.9291 18.9999 15.1201 18.9279 15.2671 18.7819C15.5601 18.4899 15.5621 18.0149 15.2701 17.7219L8.58813 11.0019L15.3101 4.27987L15.3828 4.19575C15.6007 3.90219 15.5765 3.48624 15.3101 3.21987Z"
    fill="white" fill-opacity="0.35" />
</svg>