<svg width="22" height="22" viewBox="0 0 22 22" fill="none" xmlns="http://www.w3.org/2000/svg">
  <path fill-rule="evenodd" clip-rule="evenodd"
    d="M3.96484 4.19101V17.809C3.96484 18.224 4.29984 18.559 4.71484 18.559C5.12884 18.559 5.46484 18.224 5.46484 17.809V4.19101C5.46484 3.77701 5.12884 3.44101 4.71484 3.44101C4.29984 3.44101 3.96484 3.77701 3.96484 4.19101ZM10.25 4.19101V17.809C10.25 18.224 10.586 18.559 11 18.559C11.414 18.559 11.75 18.224 11.75 17.809V4.19101C11.75 3.77701 11.414 3.44101 11 3.44101C10.586 3.44101 10.25 3.77701 10.25 4.19101ZM16.5351 17.809V4.19101C16.5351 3.77701 16.8711 3.44101 17.2851 3.44101C17.6991 3.44101 18.0351 3.77701 18.0351 4.19101V17.809C18.0351 18.224 17.6991 18.559 17.2851 18.559C16.8711 18.559 16.5351 18.224 16.5351 17.809Z"
    fill="black" fill-opacity="0.6" />
  <path fill-rule="evenodd" clip-rule="evenodd"
    d="M6.42755 3.86083C6.24427 3.01707 5.54129 2.44101 4.71484 2.44101C3.7477 2.44101 2.96484 3.22459 2.96484 4.19101V17.809L2.97391 17.9778L3.00202 18.1392C3.1849 18.9836 3.88751 19.559 4.71484 19.559C5.68127 19.559 6.46484 18.7762 6.46484 17.809V4.19101L6.45573 4.02209L6.42755 3.86083ZM12.7128 3.86083C12.5295 3.01707 11.8265 2.44101 11 2.44101C10.0338 2.44101 9.25004 3.22472 9.25004 4.19101V17.809L9.25915 17.978L9.2873 18.1394C9.47049 18.9836 10.1735 19.559 11 19.559C11.9665 19.559 12.75 18.7762 12.75 17.809V4.19101L12.7409 4.02209L12.7128 3.86083ZM17.2851 2.44101C18.1116 2.44101 18.8146 3.01707 18.9979 3.86083L19.026 4.02209L19.0351 4.19101V17.809C19.0351 18.7762 18.2516 19.559 17.2851 19.559C16.4586 19.559 15.7556 18.9836 15.5724 18.1394L15.5442 17.978L15.5351 17.809V4.19101C15.5351 3.22472 16.3189 2.44101 17.2851 2.44101ZM10.2569 4.08928C10.3066 3.72334 10.6205 3.44101 11 3.44101C11.3795 3.44101 11.6935 3.72334 11.7432 4.08928L11.75 4.19101V17.809L11.7432 17.9109C11.698 18.2442 11.4344 18.5071 11.1018 18.5522L11 18.559L10.8983 18.5522C10.5656 18.5071 10.3021 18.2442 10.2569 17.9109L10.25 17.809V4.19101L10.2569 4.08928ZM4.71484 3.44101C4.33443 3.44101 4.02123 3.72334 3.97168 4.08928L3.96484 4.19101V17.809L3.97168 17.9109C4.01673 18.2442 4.27966 18.5071 4.61291 18.5522L4.71484 18.559L4.81657 18.5522C5.14924 18.5071 5.41282 18.2442 5.45799 17.9109L5.46484 17.809V4.19101L5.45799 4.08928C5.4083 3.72334 5.09434 3.44101 4.71484 3.44101ZM16.542 4.08928C16.5917 3.72334 16.9056 3.44101 17.2851 3.44101C17.6646 3.44101 17.9786 3.72334 18.0283 4.08928L18.0351 4.19101V17.809L18.0283 17.9109C17.9831 18.2442 17.7195 18.5071 17.3869 18.5522L17.2851 18.559L17.1834 18.5522C16.8507 18.5071 16.5872 18.2442 16.542 17.9109L16.5351 17.809V4.19101L16.542 4.08928Z"
    fill="white" fill-opacity="0.35" />
</svg>