<svg width="22" height="22" viewBox="0 0 22 22" fill="none" xmlns="http://www.w3.org/2000/svg">
  <path fill-rule="evenodd" clip-rule="evenodd"
    d="M12.519 3.23151C14.688 3.23151 16.135 3.71151 17.211 4.78851C18.289 5.86551 18.768 7.31251 18.768 9.48051V12.5185C18.768 14.6875 18.289 16.1345 17.211 17.2105C16.134 18.2885 14.687 18.7685 12.519 18.7685H9.48099C7.31299 18.7685 5.86599 18.2885 4.78899 17.2105C3.71199 16.1345 3.23199 14.6875 3.23199 12.5185V9.48051C3.23199 7.31251 3.71199 5.86551 4.78899 4.78851C5.86599 3.71151 7.31299 3.23151 9.48099 3.23151H12.519ZM16.151 16.1505C16.709 15.5915 17.268 14.7185 17.268 12.5185V9.48051C17.268 7.28151 16.709 6.40851 16.151 5.84951C15.592 5.28951 14.719 4.73151 12.519 4.73151H9.48099C7.28199 4.73151 6.40899 5.28951 5.84899 5.84951C5.28999 6.40851 4.73199 7.28151 4.73199 9.48051V12.5185C4.73199 14.7185 5.28999 15.5915 5.84899 16.1505C6.40899 16.7085 7.28199 17.2685 9.48099 17.2685H12.519C14.719 17.2685 15.592 16.7085 16.151 16.1505Z"
    fill="black" fill-opacity="0.6" />
  <path fill-rule="evenodd" clip-rule="evenodd"
    d="M12.519 2.23151C14.933 2.23151 16.6337 2.79583 17.9178 4.08107C19.1429 5.30506 19.7127 6.9054 19.7641 9.14045L19.768 9.48051V12.5185C19.768 14.9338 19.2041 16.634 17.9184 17.9173C16.6942 19.1427 15.0934 19.7131 12.8589 19.7646L12.519 19.7685H9.48099C7.0676 19.7685 5.36704 19.204 4.08222 17.9179C2.85755 16.6944 2.28738 15.0935 2.23585 12.8585L2.23199 12.5185V9.48051C2.23199 7.06761 2.79627 5.36701 4.08189 4.0814C5.30628 2.857 6.90707 2.28688 9.14111 2.23536L9.48099 2.23151H12.519ZM12.519 3.23151H9.48099L9.16116 3.23512C7.16922 3.281 5.81214 3.76536 4.78899 4.78851C3.76584 5.81166 3.28149 7.16873 3.23561 9.16067L3.23199 9.48051V12.5185L3.23561 12.8385C3.28149 14.8313 3.76584 16.1883 4.78899 17.2105C5.81214 18.2346 7.16922 18.719 9.16116 18.7649L9.48099 18.7685H12.519L12.8388 18.7649C14.8308 18.719 16.1878 18.2346 17.211 17.2105C18.2351 16.1883 18.7186 14.8313 18.7644 12.8385L18.768 12.5185V9.48051L18.7644 9.16067C18.7186 7.16873 18.2351 5.81166 17.211 4.78851C16.1888 3.76536 14.8318 3.281 12.839 3.23512L12.519 3.23151ZM12.519 4.73151C14.5357 4.73151 15.4373 5.20038 16.0041 5.70987L16.151 5.84951L16.2962 6.00312C16.802 6.57036 17.268 7.47272 17.268 9.48051V12.5185C17.268 14.5352 16.7983 15.4368 16.2902 16.0036L16.151 16.1505L16.0041 16.2897L15.8406 16.4271C15.2641 16.8796 14.3523 17.2685 12.519 17.2685H9.48099C7.28199 17.2685 6.40899 16.7085 5.84899 16.1505L5.70959 16.0036C5.20087 15.4368 4.73199 14.5352 4.73199 12.5185V9.48051C4.73199 7.47272 5.19717 6.57036 5.70356 6.00312L5.84899 5.84951L6.00285 5.70383C6.57085 5.19668 7.47321 4.73151 9.48099 4.73151H12.519ZM12.519 5.73151H9.48099C7.84878 5.73151 7.1042 6.00851 6.5561 6.55661C6.03938 7.07334 5.7636 7.76639 5.73456 9.21661L5.73199 9.48051V12.5185C5.73199 14.1513 6.00897 14.8963 6.55484 15.4421C7.07527 15.9607 7.76821 16.2369 9.2173 16.2659L9.48099 16.2685H12.519C14.1505 16.2685 14.8952 15.9911 15.4433 15.444C15.9605 14.9259 16.2364 14.2327 16.2654 12.7824L16.268 12.5185V9.48051C16.268 7.84931 15.9909 7.10457 15.4433 6.55598C14.9272 6.03901 14.2342 5.76313 12.7831 5.73407L12.519 5.73151Z"
    fill="white" fill-opacity="0.35" />
</svg>