<svg width="168" height="172" viewBox="0 0 168 172" fill="none" xmlns="http://www.w3.org/2000/svg">
  <g filter="url(#filter0_d_1_100)">
    <path
      d="M74.5338 1.0474L17.9067 1.06431C11.2633 1.06629 5.87614 6.46635 5.87415 13.1257L5.83211 154.226C5.83013 160.885 11.2141 166.282 17.8575 166.28L74.4846 166.263C81.128 166.261 86.5152 160.861 86.5172 154.202L86.5592 13.1016C86.5612 6.44226 81.1772 1.04541 74.5338 1.0474Z"
      fill="#0381FE" />
    <path
      d="M74.4454 2.54507L17.9959 2.56193C12.0266 2.56371 7.18612 7.41579 7.18433 13.3994L7.14246 153.949C7.14067 159.933 11.9783 164.782 17.9475 164.78L74.3971 164.763C80.3664 164.762 85.2069 159.909 85.2087 153.926L85.2505 13.376C85.2523 7.39248 80.4147 2.54329 74.4454 2.54507Z"
      stroke="#0381FE" stroke-width="0.867448" stroke-miterlimit="10" />
  </g>
  <path
    d="M52.0507 3.08572L40.8096 3.08908C40.6135 3.08914 40.4544 3.24855 40.4544 3.44514L40.4544 3.45626C40.4543 3.65285 40.6133 3.81216 40.8094 3.8121L52.0504 3.80875C52.2466 3.80869 52.4056 3.64928 52.4057 3.45269L52.4057 3.44157C52.4057 3.24498 52.2468 3.08567 52.0507 3.08572Z"
    fill="#F5F5F5" />
  <g filter="url(#filter1_d_1_100)">
    <path
      d="M66.4642 5.67335L73.0835 5.67138C75.5218 5.67065 77.86 6.64089 79.5836 8.36866C81.3072 10.0964 82.2752 12.4402 82.2744 14.8844L82.2335 152.425C82.2327 154.869 81.2634 157.214 79.5387 158.943C77.8141 160.671 75.4753 161.643 73.037 161.644L19.3062 161.66C16.8678 161.661 14.5297 160.69 12.806 158.963C11.0824 157.235 10.1145 154.891 10.1152 152.447L10.1562 14.9059C10.1569 12.4617 11.1262 10.1174 12.8509 8.3886C14.5756 6.65979 16.9143 5.68815 19.3526 5.68742L24.5626 5.68587C24.5626 5.68587 25.7887 5.84679 25.7885 6.79784C25.7882 7.74889 25.704 11.0025 29.2327 11.2462C32.7614 11.4898 46.2163 11.4358 46.2163 11.4358L46.3439 11.4357C46.3439 11.4357 57.9956 11.4767 61.53 11.2365C65.0644 10.9963 64.9711 7.765 64.9714 6.78614C64.9716 5.80728 66.1979 5.67343 66.1979 5.67343L66.4642 5.67335Z"
      fill="#F5F5F5" />
  </g>
  <path
    d="M86.9395 40.3264L86.5512 40.3265L86.5527 35.0485L86.9078 35.0484C87.0422 35.0498 87.1706 35.1043 87.2651 35.2001C87.3596 35.2959 87.4126 35.4252 87.4126 35.5599L87.4113 39.8536C87.4113 39.9156 87.3991 39.9771 87.3753 40.0345C87.3516 40.0918 87.3169 40.144 87.2731 40.1879C87.2293 40.2318 87.1773 40.2666 87.12 40.2904C87.0628 40.3142 87.0015 40.3264 86.9395 40.3264Z"
    fill="#0381FE" stroke="#0381FE" stroke-width="0.867448" stroke-miterlimit="10" />
  <path
    d="M86.9347 56.5493L86.5463 56.5494L86.5492 46.8053L86.9043 46.8052C87.0382 46.8052 87.1666 46.8585 87.2613 46.9534C87.356 47.0482 87.4091 47.1769 87.4091 47.3112L87.4065 56.0764C87.4065 56.1385 87.3942 56.2 87.3705 56.2574C87.3468 56.3147 87.312 56.3669 87.2682 56.4108C87.2244 56.4547 87.1724 56.4895 87.1152 56.5133C87.058 56.537 86.9966 56.5493 86.9347 56.5493Z"
    fill="#0381FE" stroke="#0381FE" stroke-width="0.867448" stroke-miterlimit="10" />
  <path
    d="M86.9301 71.5894L86.5417 71.5895L86.5446 61.8454L86.8997 61.8453C87.0341 61.8467 87.1625 61.9013 87.257 61.997C87.3515 62.0928 87.4045 62.2221 87.4044 62.3568L87.4018 71.1221C87.4018 71.1839 87.3896 71.2451 87.3658 71.3022C87.342 71.3592 87.3071 71.411 87.2633 71.4544C87.2194 71.4979 87.1673 71.5322 87.1101 71.5554C87.0529 71.5786 86.9917 71.5901 86.9301 71.5894Z"
    fill="#0381FE" stroke="#0381FE" stroke-width="0.867448" stroke-miterlimit="10" />
  <path
    d="M5.47513 50.1164L5.86352 50.1163L5.86061 59.8604L5.50551 59.8605C5.3711 59.8591 5.2427 59.8046 5.14819 59.7088C5.05369 59.613 5.00071 59.4837 5.00076 59.349L5.00337 50.5837C5.00487 50.4593 5.05524 50.3405 5.14355 50.253C5.23186 50.1655 5.351 50.1164 5.47513 50.1164Z"
    fill="#0381FE" stroke="#0381FE" stroke-width="0.867448" stroke-miterlimit="10" />
  <path
    d="M5.47864 35.074L5.86703 35.0739L5.86412 44.818L5.50902 44.8181C5.37511 44.8181 5.24671 44.7648 5.15205 44.6699C5.05739 44.5751 5.00423 44.4463 5.00427 44.3121L5.00688 35.5468C5.00692 35.4215 5.05664 35.3012 5.14511 35.2125C5.23358 35.1239 5.35356 35.074 5.47864 35.074Z"
    fill="#0381FE" stroke="#0381FE" stroke-width="0.867448" stroke-miterlimit="10" />
  <g filter="url(#filter2_d_1_100)">
    <path
      d="M154.57 1.02052L97.9131 1.00359C91.2662 1.00161 85.8794 6.40131 85.8814 13.0642L85.9234 154.239C85.9254 160.902 91.3154 166.305 97.9624 166.307L154.619 166.324C161.266 166.326 166.653 160.926 166.651 154.263L166.609 13.0883C166.607 6.42542 161.217 1.0225 154.57 1.02052Z"
      fill="#0381FE" />
    <path
      d="M154.482 2.51735L98.0028 2.50048C92.0304 2.4987 87.1902 7.35046 87.192 13.3372L87.2339 153.961C87.2357 159.948 92.0787 164.803 98.0512 164.805L154.531 164.821C160.503 164.823 165.343 159.971 165.341 153.985L165.299 13.3605C165.298 7.37378 160.455 2.51913 154.482 2.51735Z"
      fill="#0381FE" stroke="#0381FE" stroke-width="0.867907" stroke-miterlimit="10" />
  </g>
  <path
    d="M132.078 3.04501L120.831 3.04166C120.635 3.0416 120.476 3.201 120.476 3.39769L120.476 3.40882C120.476 3.60551 120.635 3.765 120.831 3.76506L132.078 3.76842C132.274 3.76848 132.433 3.60908 132.433 3.41239L132.433 3.40126C132.433 3.20457 132.274 3.04507 132.078 3.04501Z"
    fill="#F5F5F5" />
  <g filter="url(#filter3_d_1_100)">
    <path
      d="M146.5 5.64074L153.123 5.64272C155.562 5.64345 157.902 6.6156 159.628 8.34532C161.354 10.075 162.323 12.4206 162.324 14.8661L162.365 152.48C162.366 154.925 161.397 157.27 159.673 158.999C157.948 160.728 155.609 161.698 153.169 161.698L99.41 161.682C96.9704 161.681 94.6304 160.709 92.9048 158.979C91.1793 157.249 90.2094 154.904 90.2087 152.458L90.1677 14.8445C90.167 12.3991 91.1354 10.0541 92.86 8.32538C94.5845 6.59669 96.9239 5.62594 99.3635 5.62666L104.576 5.62822C104.576 5.62822 105.803 5.78996 105.803 6.74152C105.804 7.69307 105.721 10.9484 109.252 11.1943C112.783 11.4402 126.245 11.3941 126.245 11.3941L126.373 11.3941C126.373 11.3941 138.03 11.4421 141.567 11.2039C145.103 10.9657 145.007 7.7326 145.007 6.75323C145.007 5.77385 146.234 5.64066 146.234 5.64066L146.5 5.64074Z"
      fill="#F5F5F5" />
  </g>
  <path
    d="M167.007 40.3261L166.619 40.326L166.617 35.0451L166.972 35.0452C167.107 35.0467 167.235 35.1013 167.33 35.1972C167.424 35.2931 167.478 35.4225 167.478 35.5573L167.479 39.8532C167.479 39.9153 167.467 39.9768 167.443 40.0342C167.419 40.0916 167.385 40.1437 167.341 40.1876C167.297 40.2315 167.245 40.2664 167.188 40.2901C167.13 40.3139 167.069 40.3261 167.007 40.3261Z"
    fill="#0381FE" stroke="#0381FE" stroke-width="0.867907" stroke-miterlimit="10" />
  <path
    d="M167.012 56.5583L166.623 56.5582L166.62 46.8089L166.976 46.809C167.11 46.8091 167.238 46.8625 167.333 46.9575C167.428 47.0525 167.481 47.1813 167.481 47.3156L167.484 56.0854C167.484 56.1476 167.472 56.2091 167.448 56.2665C167.424 56.3238 167.389 56.376 167.346 56.4199C167.302 56.4638 167.25 56.4986 167.193 56.5223C167.135 56.5461 167.074 56.5583 167.012 56.5583Z"
    fill="#0381FE" stroke="#0381FE" stroke-width="0.867907" stroke-miterlimit="10" />
  <path
    d="M167.015 71.6054L166.627 71.6053L166.624 61.856L166.979 61.8561C167.114 61.8576 167.242 61.9123 167.337 62.0081C167.431 62.104 167.485 62.2334 167.485 62.3682L167.487 71.1381C167.487 71.1999 167.475 71.2612 167.451 71.3183C167.427 71.3753 167.393 71.4271 167.349 71.4706C167.305 71.514 167.253 71.5483 167.196 71.5715C167.138 71.5946 167.077 71.6061 167.015 71.6054Z"
    fill="#0381FE" stroke="#0381FE" stroke-width="0.867907" stroke-miterlimit="10" />
  <path
    d="M85.5047 50.0737L85.8933 50.0738L85.8962 59.8231L85.5409 59.823C85.4064 59.8215 85.2779 59.7669 85.1833 59.671C85.0887 59.5751 85.0356 59.4457 85.0356 59.3109L85.033 50.541C85.0344 50.4165 85.0847 50.2976 85.173 50.2102C85.2613 50.1227 85.3805 50.0736 85.5047 50.0737Z"
    fill="#0381FE" stroke="#0381FE" stroke-width="0.867907" stroke-miterlimit="10" />
  <path
    d="M85.5 35.022L85.8886 35.0221L85.8915 44.7713L85.5362 44.7712C85.4023 44.7712 85.2738 44.7178 85.179 44.6228C85.0842 44.5278 85.031 44.399 85.0309 44.2647L85.0283 35.4948C85.0283 35.3694 85.078 35.2491 85.1664 35.1604C85.2549 35.0717 85.3749 35.0219 85.5 35.022Z"
    fill="#0381FE" stroke="#0381FE" stroke-width="0.867907" stroke-miterlimit="10" />
  <defs>
    <filter id="filter0_d_1_100" x="0.854273" y="0.0553985" width="86.6969" height="171.203"
      filterUnits="userSpaceOnUse" color-interpolation-filters="sRGB">
      <feFlood flood-opacity="0" result="BackgroundImageFix" />
      <feColorMatrix in="SourceAlpha" type="matrix"
        values="0 0 0 0 0 0 0 0 0 0 0 0 0 0 0 0 0 0 127 0" result="hardAlpha" />
      <feOffset dx="-1.99293" dy="1.99293" />
      <feGaussianBlur stdDeviation="1.49246" />
      <feComposite in2="hardAlpha" operator="out" />
      <feColorMatrix type="matrix" values="0 0 0 0 0 0 0 0 0 0 0 0 0 0 0 0 0 0 0.14 0" />
      <feBlend mode="normal" in2="BackgroundImageFix" result="effect1_dropShadow_1_100" />
      <feBlend mode="normal" in="SourceGraphic" in2="effect1_dropShadow_1_100" result="shape" />
    </filter>
    <filter id="filter1_d_1_100" x="5.13732" y="4.67938" width="78.1291" height="161.958"
      filterUnits="userSpaceOnUse" color-interpolation-filters="sRGB">
      <feFlood flood-opacity="0" result="BackgroundImageFix" />
      <feColorMatrix in="SourceAlpha" type="matrix"
        values="0 0 0 0 0 0 0 0 0 0 0 0 0 0 0 0 0 0 127 0" result="hardAlpha" />
      <feOffset dx="-1.99293" dy="1.99293" />
      <feGaussianBlur stdDeviation="1.49246" />
      <feComposite in2="hardAlpha" operator="out" />
      <feColorMatrix type="matrix" values="0 0 0 0 0 0 0 0 0 0 0 0 0 0 0 0 0 0 0.14 0" />
      <feBlend mode="normal" in2="BackgroundImageFix" result="effect1_dropShadow_1_100" />
      <feBlend mode="normal" in="SourceGraphic" in2="effect1_dropShadow_1_100" result="shape" />
    </filter>
    <filter id="filter2_d_1_100" x="80.9009" y="0.0110811" width="86.7428" height="171.293"
      filterUnits="userSpaceOnUse" color-interpolation-filters="sRGB">
      <feFlood flood-opacity="0" result="BackgroundImageFix" />
      <feColorMatrix in="SourceAlpha" type="matrix"
        values="0 0 0 0 0 0 0 0 0 0 0 0 0 0 0 0 0 0 127 0" result="hardAlpha" />
      <feOffset dx="-1.99398" dy="1.99398" />
      <feGaussianBlur stdDeviation="1.49325" />
      <feComposite in2="hardAlpha" operator="out" />
      <feColorMatrix type="matrix" values="0 0 0 0 0 0 0 0 0 0 0 0 0 0 0 0 0 0 0.14 0" />
      <feBlend mode="normal" in2="BackgroundImageFix" result="effect1_dropShadow_1_100" />
      <feBlend mode="normal" in="SourceGraphic" in2="effect1_dropShadow_1_100" result="shape" />
    </filter>
    <filter id="filter3_d_1_100" x="85.1872" y="4.63414" width="78.1705" height="162.044"
      filterUnits="userSpaceOnUse" color-interpolation-filters="sRGB">
      <feFlood flood-opacity="0" result="BackgroundImageFix" />
      <feColorMatrix in="SourceAlpha" type="matrix"
        values="0 0 0 0 0 0 0 0 0 0 0 0 0 0 0 0 0 0 127 0" result="hardAlpha" />
      <feOffset dx="-1.99398" dy="1.99398" />
      <feGaussianBlur stdDeviation="1.49325" />
      <feComposite in2="hardAlpha" operator="out" />
      <feColorMatrix type="matrix" values="0 0 0 0 0 0 0 0 0 0 0 0 0 0 0 0 0 0 0.14 0" />
      <feBlend mode="normal" in2="BackgroundImageFix" result="effect1_dropShadow_1_100" />
      <feBlend mode="normal" in="SourceGraphic" in2="effect1_dropShadow_1_100" result="shape" />
    </filter>
  </defs>
</svg>